<?xml version="1.0" standalone="no"?>
<!DOCTYPE svg PUBLIC "-//W3C//DTD SVG 20010904//EN"
 "http://www.w3.org/TR/2001/REC-SVG-20010904/DTD/svg10.dtd">
<svg version="1.0" xmlns="http://www.w3.org/2000/svg"
 width="581.000000pt" height="581.000000pt" viewBox="0 0 581.000000 581.000000"
 preserveAspectRatio="xMidYMid meet">
<metadata>
Created by potrace 1.14, written by Peter Selinger 2001-2017
</metadata>
<g transform="translate(0.000000,581.000000) scale(0.100000,-0.100000)"
fill="#000000" stroke="none">
<path d="M3573 5508 l-302 -303 45 -225 c24 -124 66 -340 93 -480 116 -593
151 -770 168 -855 l19 -89 534 -158 c294 -87 614 -181 710 -209 96 -28 220
-65 275 -81 154 -46 196 -58 254 -74 l54 -15 194 193 193 193 0 207 0 207 -37
10 c-21 5 -108 29 -193 51 -85 23 -204 55 -265 70 -503 132 -1098 290 -1101
292 -3 3 -83 426 -104 553 -21 126 -181 991 -185 1003 -14 41 -55 7 -352 -290z"/>
<path d="M1588 5366 c-29 -35 -82 -101 -118 -146 -36 -45 -88 -110 -115 -144
-28 -33 -66 -81 -85 -106 -19 -25 -59 -75 -90 -112 -30 -37 -66 -81 -79 -99
l-24 -31 1514 -1514 1514 -1514 320 320 320 320 -1545 1545 c-850 850 -1548
1545 -1552 1545 -4 0 -31 -29 -60 -64z"/>
<path d="M787 2722 l-787 -787 0 -60 0 -60 210 -210 210 -210 450 450 c247
247 452 446 456 442 7 -7 26 -169 89 -752 14 -132 32 -298 40 -370 9 -71 26
-231 40 -355 13 -124 37 -340 52 -480 l28 -255 33 -37 34 -38 382 0 381 0 654
654 654 654 -34 43 c-19 24 -56 72 -84 106 -27 34 -77 97 -110 139 -33 42 -91
114 -129 161 l-69 85 -498 -498 c-274 -274 -502 -495 -506 -490 -4 4 -63 503
-130 1109 l-123 1101 -222 223 c-123 123 -225 223 -228 223 -3 0 -359 -354
-793 -788z"/>
</g>
</svg>
