<?xml version="1.0" encoding="UTF-8" standalone="no"?>
<!-- Created with Inkscape (http://www.inkscape.org/) -->

<svg
   version="1.1"
   id="svg63"
   xml:space="preserve"
   width="14.999453"
   height="15.000004"
   viewBox="0 0 14.999453 15.000004"
   sodipodi:docname="github_mark.svg"
   inkscape:version="1.1.1 (3bf5ae0d25, 2021-09-20)"
   xmlns:inkscape="http://www.inkscape.org/namespaces/inkscape"
   xmlns:sodipodi="http://sodipodi.sourceforge.net/DTD/sodipodi-0.dtd"
   xmlns="http://www.w3.org/2000/svg"
   xmlns:svg="http://www.w3.org/2000/svg"><defs
     id="defs67" /><sodipodi:namedview
     id="namedview65"
     pagecolor="#ffffff"
     bordercolor="#666666"
     borderopacity="1.0"
     inkscape:pageshadow="2"
     inkscape:pageopacity="0.0"
     inkscape:pagecheckerboard="0"
     showgrid="false"
     inkscape:zoom="0.98851979"
     inkscape:cx="-364.68668"
     inkscape:cy="-105.71361"
     inkscape:window-width="1920"
     inkscape:window-height="1154"
     inkscape:window-x="0"
     inkscape:window-y="22"
     inkscape:window-maximized="1"
     inkscape:current-layer="g69"
     width="15px"
     viewbox-width="43.43867"
     scale-x="1"
     fit-margin-top="0"
     fit-margin-left="0"
     fit-margin-right="0"
     fit-margin-bottom="0" /><g
     id="g69"
     inkscape:groupmode="layer"
     inkscape:label="ink_ext_XXXXXX"
     transform="matrix(1.3333333,0,0,-1.3333333,-181.76,224.72666)"><path
       d="m 141.94448,168.545 c -3.10576,0 -5.62448,-2.58211 -5.62448,-5.76753 0,-2.54812 1.61158,-4.70962 3.8468,-5.47225 0.28143,-0.0531 0.38399,0.12498 0.38399,0.27793 0,0.13702 -0.005,0.49957 -0.008,0.98073 -1.56462,-0.34839 -1.89474,0.77325 -1.89474,0.77325 -0.25588,0.66633 -0.62468,0.84371 -0.62468,0.84371 -0.51072,0.3576 0.0387,0.35051 0.0387,0.35051 0.56459,-0.0407 0.86156,-0.59445 0.86156,-0.59445 0.50174,-0.88124 1.31668,-0.62668 1.63713,-0.47904 0.0511,0.37247 0.19649,0.62668 0.35706,0.77078 -1.249,0.14552 -2.56224,0.64048 -2.56224,2.85048 0,0.62951 0.21928,1.14466 0.5791,1.54757 -0.058,0.14587 -0.25105,0.73254 0.0553,1.52633 0,0 0.47204,0.15507 1.54666,-0.59127 0.44856,0.12816 0.92993,0.19189 1.40819,0.19437 0.47792,-0.002 0.95894,-0.0662 1.4082,-0.19437 1.07392,0.74634 1.54528,0.59127 1.54528,0.59127 0.30698,-0.79379 0.11395,-1.38046 0.0563,-1.52633 0.36051,-0.40291 0.57806,-0.91806 0.57806,-1.54757 0,-2.21566 -1.3153,-2.70319 -2.5681,-2.84588 0.20166,-0.17809 0.38157,-0.53002 0.38157,-1.06782 0,-0.77113 -0.007,-1.3932 -0.007,-1.58227 0,-0.15437 0.10153,-0.33387 0.38675,-0.27758 2.2335,0.76441 3.8437,2.92449 3.8437,5.4719 0,3.18542 -2.51872,5.76753 -5.62552,5.76753"
       style="fill:#ffffff;fill-opacity:1;fill-rule:evenodd;stroke:none;stroke-width:0.0349657"
       id="path165" /></g></svg>
